<?xml version="1.0" encoding="UTF-8" standalone="no"?><!DOCTYPE svg PUBLIC "-//W3C//DTD SVG 1.1//EN" "http://www.w3.org/Graphics/SVG/1.1/DTD/svg11.dtd"><svg width="100%" height="100%" viewBox="0 0 2550 2550" version="1.1" xmlns="http://www.w3.org/2000/svg" xmlns:xlink="http://www.w3.org/1999/xlink" xml:space="preserve" xmlns:serif="http://www.serif.com/" style="fill-rule:evenodd;clip-rule:evenodd;stroke-linejoin:round;stroke-miterlimit:2;"><g><rect x="-0" y="0" width="2550" height="2550" style="fill:#fff;"/><g><path d="M981.869,2221.43c0,11.507 2.13,20.237 6.389,26.189c4.259,6.151 10.307,9.226 18.143,9.226c7.667,-0 13.715,-3.075 18.144,-9.226c4.429,-6.349 6.644,-15.079 6.644,-26.189c0,-11.111 -2.215,-19.94 -6.644,-26.487c-4.429,-6.151 -10.477,-9.226 -18.144,-9.226c-7.836,-0 -13.884,3.075 -18.143,9.226c-4.259,6.15 -6.389,14.979 -6.389,26.487Zm-18.143,-0c-0,-16.666 3.748,-29.86 11.244,-39.582c8.007,-9.722 18.484,-14.583 31.431,-14.583c12.778,0 23.255,4.861 31.432,14.583c7.667,9.92 11.5,23.114 11.5,39.582c-0,16.467 -3.833,29.562 -11.5,39.284c-7.836,9.523 -18.314,14.285 -31.432,14.285c-13.288,-0 -23.765,-4.762 -31.431,-14.285c-7.496,-9.524 -11.244,-22.618 -11.244,-39.284Z" style="fill-rule:nonzero;"/><path d="M1110.46,2272.62l-0,-91.663c-0,-2.976 0.94,-5.506 2.821,-7.589c1.88,-2.083 4.164,-3.224 6.851,-3.422l10.21,-0l39.614,67.533l0,-67.533l16.808,-0l-0,102.674l-19.614,0l-39.883,-67.533l-0,67.533l-16.807,0Z" style="fill-rule:nonzero;"/><path d="M1245.55,2272.62l0,-91.663c0,-2.976 0.978,-5.506 2.933,-7.589c1.955,-2.083 4.329,-3.125 7.122,-3.125l57.115,0l-0,17.559l-47.62,0l-0.378,22.726l34.393,0l-0,6.142c-0,2.976 -0.978,5.506 -2.933,7.589c-1.955,2.083 -4.329,3.125 -7.122,3.125l-23.96,-0l0,26.189l47.62,0l-0,19.047l-67.17,0Z" style="fill-rule:nonzero;"/><path d="M1422.53,2272.62l-16.889,0l0,-38.094l-34.678,-64.283l23.375,0l19.613,40.178l15.852,-34.226c1.791,-3.968 4.747,-5.952 8.867,-5.952l15.314,0l-31.454,64.283l0,38.094Z" style="fill-rule:nonzero;"/><path d="M810.183,2272.62l0,-91.663c0,-2.976 0.94,-5.506 2.821,-7.589c1.881,-2.083 4.165,-3.224 6.851,-3.422l18.539,-0l18.27,70.886l18.27,-70.886l28.211,-0l0,102.674l-19.19,0l-0,-82.735l-17.35,82.735l-19.613,0l-17.254,-82.735l0,82.735l-19.555,0Z" style="fill-rule:nonzero;"/><g><path d="M250.5,2092.91l-0,-260.667c-0,-8.463 2.58,-15.657 7.74,-21.581c5.159,-5.924 11.425,-9.168 18.796,-9.733l50.861,0l50.123,201.583l50.124,-201.583l77.396,0l0,291.981l-52.649,-0l0,-235.277l-47.598,235.277l-53.809,-0l-47.335,-235.277l0,235.277l-53.649,-0Z" style="fill-rule:nonzero;"/><path d="M612.422,2092.91l-0,-260.667c-0,-8.463 2.58,-15.657 7.739,-21.581c5.16,-5.924 11.426,-8.886 18.797,-8.886l150.741,-0l0,49.933l-125.68,-0l-1,64.627l90.773,0l0,17.466c0,8.463 -2.58,15.657 -7.739,21.581c-5.16,5.924 -11.426,8.886 -18.797,8.886l-63.237,0l0,74.476l125.68,0l0,54.165l-177.277,-0Z" style="fill-rule:nonzero;"/><path d="M899.895,2092.91l0,-260.667c0,-8.463 2.58,-15.657 7.74,-21.581c5.159,-5.924 11.425,-8.886 18.796,-8.886l72.974,-0c38.821,-0 67.814,11.848 86.979,35.545c19.165,24.826 28.748,61.499 28.748,110.022c-0,25.954 -3.44,49.368 -10.32,70.244c-7.863,21.44 -18.182,37.803 -30.959,49.087c-10.811,9.592 -22.359,16.362 -34.644,20.312c-11.794,3.949 -29.73,5.924 -53.809,5.924l-85.505,-0Zm53.861,-52.472l39.015,0c24.079,0 41.77,-7.335 53.072,-22.004c10.811,-13.541 16.217,-37.238 16.217,-71.091c-0,-32.725 -5.16,-56.704 -15.48,-71.937c-9.828,-15.234 -25.553,-22.851 -47.175,-22.851l-45.649,-0l-0,187.883Z" style="fill-rule:nonzero;"/><path d="M1219.8,2092.91l0,-260.667c0,-8.463 2.58,-15.657 7.74,-21.581c5.16,-5.924 11.425,-8.886 18.796,-8.886l28.799,-0l0,236.969l120.835,0l-0,54.165l-176.17,-0Z" style="fill-rule:nonzero;"/><path d="M1498.43,2092.91l0,-260.667c0,-8.463 2.58,-15.657 7.74,-21.581c5.16,-5.924 11.425,-8.886 18.796,-8.886l152.742,-0l0,49.933l-127.68,-0l0,62.627l94.773,0l0,19.466c0,8.463 -2.58,15.657 -7.74,21.581c-5.159,5.924 -11.425,8.886 -18.796,8.886l-68.237,0l0,74.476l127.68,0l0,54.165l-179.278,-0Z" style="fill-rule:nonzero;"/><path d="M1927.38,2092.91l-46.335,-0l-0,-108.329l-95.139,-182.805l64.128,-0l53.81,114.255l43.489,-97.329c4.914,-11.284 13.022,-16.926 24.325,-16.926l42.015,-0l-86.293,182.805l-0,108.329Z" style="fill-rule:nonzero;"/></g><g><path d="M1807.07,536.563c36.877,-48.729 145.915,-140.97 334.741,-150.703c-215.027,-30.283 -338.283,85.729 -341.789,89.781c-10.369,11.979 -29.881,25.368 -56.377,64.129c-16.773,24.536 -37.114,59.699 -39.087,62.543c-9.257,13.311 -32.832,63.518 -64.236,140.856l0,0.002c-26.366,64.915 -58.253,148.953 -91.798,246.325l-114.955,319.825l106.118,-194.071c1.595,27.989 3.19,55.339 4.744,81.628l23.217,368.195c0.071,1.13 247.727,179.356 247.727,179.356l-72.928,-887.331c-3.038,-178.836 4.528,-199.328 15.292,-230.754c12.203,-35.624 22.497,-54.324 49.331,-89.781Z" style="fill-rule:nonzero;"/><path d="M2081.68,298.341c-50.129,-14.427 -166.929,-40.775 -307.093,-6.537c-44.86,10.959 -157.629,39.993 -251.421,135.643c-60.017,61.199 -87.621,124.569 -100.594,162.386l-196.639,647.825c-43.915,113.27 -77.439,206.102 -103.717,287.632c-25.484,-82.485 -57.504,-175.218 -99.179,-287.626l-214.071,-678.336c-0.048,-0.124 -240.746,-154.163 -240.753,-154.079l-138.437,1339.18c-0,-0 255.196,-174.248 255.294,-175.669l24.604,-359.473c6.705,-102.683 12.604,-209.62 17.151,-309.338c24.617,75.276 54.056,158.953 89.73,255.327l208.278,573.13c0.023,0.063 191.028,3.699 197.321,-0l205.54,-582.861c37.513,-93.37 70.869,-180.718 100.657,-263.524c59.575,-165.667 117.849,-357.974 278.564,-467.648c15.723,-10.736 44.041,-29.795 86.194,-45.759c117.345,-44.439 230.261,-22.602 276.57,-13.074c35.14,7.229 63.018,16.385 80.819,22.88c-34.49,-24.005 -91.19,-57.742 -168.818,-80.079Z"/></g></g></g></svg>